<svg width="774" height="510" viewBox="0 0 774 510" fill="none" xmlns="http://www.w3.org/2000/svg">
<path fill-rule="evenodd" clip-rule="evenodd" d="M441.433 461.12V279.901H640.575V472.073H441.433V461.12ZM492.215 374.494V454.15L500.18 467.094H574.858L591.785 454.15V380.468L584.815 364.536H500.18L492.215 374.494ZM483.253 334.665L492.215 306.785L521.09 334.665H483.253ZM534.034 324.708L507.15 296.828L534.034 283.884V324.708ZM549.966 324.708V283.884L574.858 296.828L549.966 324.708ZM601.742 334.665L591.785 306.785L557.931 334.665H601.742Z" fill="black" stroke="black"/>
<rect x="304.026" y="196.262" width="119.485" height="29.8712" rx="3" fill="black"/>
<rect x="654.515" y="198.253" width="119.485" height="29.8712" rx="3" fill="black"/>
<rect x="423.511" y="156.433" width="231.004" height="29.8712" rx="5" fill="black"/>
<rect x="453.382" y="104.657" width="15.9313" height="67.7082" rx="5" fill="black"/>
<rect x="612.695" y="102.665" width="15.9313" height="67.7082" rx="5" fill="black"/>
<rect x="395.631" y="25" width="288.755" height="107.536" rx="5" fill="black"/>
<path d="M435.088 202.869C435.296 199.162 438.363 196.262 442.077 196.262H636.282C639.857 196.262 642.854 198.925 643.234 202.479C645.151 220.39 650.532 271.185 650.532 276.914C650.532 283.122 475.955 284.591 437.792 284.838C433.76 284.864 430.672 281.48 430.898 277.454L435.088 202.869Z" fill="black"/>
<rect x="319.957" y="238.082" width="103.554" height="250.918" rx="5" fill="black"/>
<rect x="308.009" y="463.112" width="465.991" height="25.8884" rx="5" fill="black"/>
<rect x="658.498" y="246.047" width="101.562" height="234.987" rx="5" fill="black"/>
<path d="M427.898 81.1953H419.883V95H415.359V60.875H426.656C430.5 60.875 433.453 61.75 435.516 63.5C437.594 65.25 438.633 67.7969 438.633 71.1406C438.633 73.2656 438.055 75.1172 436.898 76.6953C435.758 78.2734 434.164 79.4531 432.117 80.2344L440.133 94.7188V95H435.305L427.898 81.1953ZM419.883 77.5156H426.797C429.031 77.5156 430.805 76.9375 432.117 75.7812C433.445 74.625 434.109 73.0781 434.109 71.1406C434.109 69.0312 433.477 67.4141 432.211 66.2891C430.961 65.1641 429.148 64.5938 426.773 64.5781H419.883V77.5156ZM454.805 95.4688C451.367 95.4688 448.57 94.3438 446.414 92.0938C444.258 89.8281 443.18 86.8047 443.18 83.0234V82.2266C443.18 79.7109 443.656 77.4688 444.609 75.5C445.578 73.5156 446.922 71.9688 448.641 70.8594C450.375 69.7344 452.25 69.1719 454.266 69.1719C457.562 69.1719 460.125 70.2578 461.953 72.4297C463.781 74.6016 464.695 77.7109 464.695 81.7578V83.5625H447.516C447.578 86.0625 448.305 88.0859 449.695 89.6328C451.102 91.1641 452.883 91.9297 455.039 91.9297C456.57 91.9297 457.867 91.6172 458.93 90.9922C459.992 90.3672 460.922 89.5391 461.719 88.5078L464.367 90.5703C462.242 93.8359 459.055 95.4688 454.805 95.4688ZM454.266 72.7344C452.516 72.7344 451.047 73.375 449.859 74.6562C448.672 75.9219 447.938 77.7031 447.656 80H460.359V79.6719C460.234 77.4688 459.641 75.7656 458.578 74.5625C457.516 73.3438 456.078 72.7344 454.266 72.7344ZM484.5 88.2734C484.5 87.1016 484.055 86.1953 483.164 85.5547C482.289 84.8984 480.75 84.3359 478.547 83.8672C476.359 83.3984 474.617 82.8359 473.32 82.1797C472.039 81.5234 471.086 80.7422 470.461 79.8359C469.852 78.9297 469.547 77.8516 469.547 76.6016C469.547 74.5234 470.422 72.7656 472.172 71.3281C473.938 69.8906 476.188 69.1719 478.922 69.1719C481.797 69.1719 484.125 69.9141 485.906 71.3984C487.703 72.8828 488.602 74.7812 488.602 77.0938H484.242C484.242 75.9062 483.734 74.8828 482.719 74.0234C481.719 73.1641 480.453 72.7344 478.922 72.7344C477.344 72.7344 476.109 73.0781 475.219 73.7656C474.328 74.4531 473.883 75.3516 473.883 76.4609C473.883 77.5078 474.297 78.2969 475.125 78.8281C475.953 79.3594 477.445 79.8672 479.602 80.3516C481.773 80.8359 483.531 81.4141 484.875 82.0859C486.219 82.7578 487.211 83.5703 487.852 84.5234C488.508 85.4609 488.836 86.6094 488.836 87.9688C488.836 90.2344 487.93 92.0547 486.117 93.4297C484.305 94.7891 481.953 95.4688 479.062 95.4688C477.031 95.4688 475.234 95.1094 473.672 94.3906C472.109 93.6719 470.883 92.6719 469.992 91.3906C469.117 90.0938 468.68 88.6953 468.68 87.1953H473.016C473.094 88.6484 473.672 89.8047 474.75 90.6641C475.844 91.5078 477.281 91.9297 479.062 91.9297C480.703 91.9297 482.016 91.6016 483 90.9453C484 90.2734 484.5 89.3828 484.5 88.2734ZM500.367 63.5V69.6406H505.102V72.9922H500.367V88.7188C500.367 89.7344 500.578 90.5 501 91.0156C501.422 91.5156 502.141 91.7656 503.156 91.7656C503.656 91.7656 504.344 91.6719 505.219 91.4844V95C504.078 95.3125 502.969 95.4688 501.891 95.4688C499.953 95.4688 498.492 94.8828 497.508 93.7109C496.523 92.5391 496.031 90.875 496.031 88.7188V72.9922H491.414V69.6406H496.031V63.5H500.367ZM525.844 95C525.594 94.5 525.391 93.6094 525.234 92.3281C523.219 94.4219 520.812 95.4688 518.016 95.4688C515.516 95.4688 513.461 94.7656 511.852 93.3594C510.258 91.9375 509.461 90.1406 509.461 87.9688C509.461 85.3281 510.461 83.2812 512.461 81.8281C514.477 80.3594 517.305 79.625 520.945 79.625H525.164V77.6328C525.164 76.1172 524.711 74.9141 523.805 74.0234C522.898 73.1172 521.562 72.6641 519.797 72.6641C518.25 72.6641 516.953 73.0547 515.906 73.8359C514.859 74.6172 514.336 75.5625 514.336 76.6719H509.977C509.977 75.4062 510.422 74.1875 511.312 73.0156C512.219 71.8281 513.438 70.8906 514.969 70.2031C516.516 69.5156 518.211 69.1719 520.055 69.1719C522.977 69.1719 525.266 69.9062 526.922 71.375C528.578 72.8281 529.438 74.8359 529.5 77.3984V89.0703C529.5 91.3984 529.797 93.25 530.391 94.625V95H525.844ZM518.648 91.6953C520.008 91.6953 521.297 91.3438 522.516 90.6406C523.734 89.9375 524.617 89.0234 525.164 87.8984V82.6953H521.766C516.453 82.6953 513.797 84.25 513.797 87.3594C513.797 88.7188 514.25 89.7812 515.156 90.5469C516.062 91.3125 517.227 91.6953 518.648 91.6953ZM551.953 92.4922C550.266 94.4766 547.789 95.4688 544.523 95.4688C541.82 95.4688 539.758 94.6875 538.336 93.125C536.93 91.5469 536.219 89.2188 536.203 86.1406V69.6406H540.539V86.0234C540.539 89.8672 542.102 91.7891 545.227 91.7891C548.539 91.7891 550.742 90.5547 551.836 88.0859V69.6406H556.172V95H552.047L551.953 92.4922ZM575.039 73.5312C574.383 73.4219 573.672 73.3672 572.906 73.3672C570.062 73.3672 568.133 74.5781 567.117 77V95H562.781V69.6406H567L567.07 72.5703C568.492 70.3047 570.508 69.1719 573.117 69.1719C573.961 69.1719 574.602 69.2812 575.039 69.5V73.5312ZM593.766 95C593.516 94.5 593.312 93.6094 593.156 92.3281C591.141 94.4219 588.734 95.4688 585.938 95.4688C583.438 95.4688 581.383 94.7656 579.773 93.3594C578.18 91.9375 577.383 90.1406 577.383 87.9688C577.383 85.3281 578.383 83.2812 580.383 81.8281C582.398 80.3594 585.227 79.625 588.867 79.625H593.086V77.6328C593.086 76.1172 592.633 74.9141 591.727 74.0234C590.82 73.1172 589.484 72.6641 587.719 72.6641C586.172 72.6641 584.875 73.0547 583.828 73.8359C582.781 74.6172 582.258 75.5625 582.258 76.6719H577.898C577.898 75.4062 578.344 74.1875 579.234 73.0156C580.141 71.8281 581.359 70.8906 582.891 70.2031C584.438 69.5156 586.133 69.1719 587.977 69.1719C590.898 69.1719 593.188 69.9062 594.844 71.375C596.5 72.8281 597.359 74.8359 597.422 77.3984V89.0703C597.422 91.3984 597.719 93.25 598.312 94.625V95H593.766ZM586.57 91.6953C587.93 91.6953 589.219 91.3438 590.438 90.6406C591.656 89.9375 592.539 89.0234 593.086 87.8984V82.6953H589.688C584.375 82.6953 581.719 84.25 581.719 87.3594C581.719 88.7188 582.172 89.7812 583.078 90.5469C583.984 91.3125 585.148 91.6953 586.57 91.6953ZM608.32 69.6406L608.461 72.8281C610.398 70.3906 612.93 69.1719 616.055 69.1719C621.414 69.1719 624.117 72.1953 624.164 78.2422V95H619.828V78.2188C619.812 76.3906 619.391 75.0391 618.562 74.1641C617.75 73.2891 616.477 72.8516 614.742 72.8516C613.336 72.8516 612.102 73.2266 611.039 73.9766C609.977 74.7266 609.148 75.7109 608.555 76.9297V95H604.219V69.6406H608.32ZM636.586 63.5V69.6406H641.32V72.9922H636.586V88.7188C636.586 89.7344 636.797 90.5 637.219 91.0156C637.641 91.5156 638.359 91.7656 639.375 91.7656C639.875 91.7656 640.562 91.6719 641.438 91.4844V95C640.297 95.3125 639.188 95.4688 638.109 95.4688C636.172 95.4688 634.711 94.8828 633.727 93.7109C632.742 92.5391 632.25 90.875 632.25 88.7188V72.9922H627.633V69.6406H632.25V63.5H636.586ZM656.93 95.4688C653.492 95.4688 650.695 94.3438 648.539 92.0938C646.383 89.8281 645.305 86.8047 645.305 83.0234V82.2266C645.305 79.7109 645.781 77.4688 646.734 75.5C647.703 73.5156 649.047 71.9688 650.766 70.8594C652.5 69.7344 654.375 69.1719 656.391 69.1719C659.688 69.1719 662.25 70.2578 664.078 72.4297C665.906 74.6016 666.82 77.7109 666.82 81.7578V83.5625H649.641C649.703 86.0625 650.43 88.0859 651.82 89.6328C653.227 91.1641 655.008 91.9297 657.164 91.9297C658.695 91.9297 659.992 91.6172 661.055 90.9922C662.117 90.3672 663.047 89.5391 663.844 88.5078L666.492 90.5703C664.367 93.8359 661.18 95.4688 656.93 95.4688ZM656.391 72.7344C654.641 72.7344 653.172 73.375 651.984 74.6562C650.797 75.9219 650.062 77.7031 649.781 80H662.484V79.6719C662.359 77.4688 661.766 75.7656 660.703 74.5625C659.641 73.3438 658.203 72.7344 656.391 72.7344Z" fill="white"/>
<circle cx="185.5" cy="187.5" r="34.5" fill="black"/>
<path d="M129.5 227.5H160.5V318H215L218.5 223L249.5 227.5L259 288.5V341.5C249.362 349.071 244.672 349.76 239 337.5V286L231.5 261.5V318L239 355L218.5 374V498C207.951 511.625 201.812 513.561 190 495V403H182.5V498C171.011 510.883 165.416 509.203 156.5 495V374L137.5 358.5L143 329V276L137.5 256L111.5 292.5H105.5H98L69.5 231.5L31 227.5L43.5 223V220L48.5 210.5L56.5 203L69.5 199.5L74.5 193H79.5L83 199.5C99.9309 202.248 106.157 207.409 111.5 223L119 227.5L86.5 231.5L105.5 266L129.5 227.5Z" fill="black" stroke="black"/>
<circle cx="185.5" cy="272.5" r="4.5" fill="black"/>
<circle cx="185.5" cy="301.5" r="4.5" fill="black"/>
<circle cx="185.5" cy="243.5" r="4.5" fill="black"/>
<path d="M169 222V239L184.5 231L202 239L200.5 220L184.5 226.5L169 222Z" fill="black" stroke="black"/>
<path d="M155.5 135L162.5 157.5L161 152.5L155.5 135Z" fill="#C4C4C4"/>
<path fill-rule="evenodd" clip-rule="evenodd" d="M294.924 42.5302C297.092 31.3456 288.997 20.7807 277.634 19.9636L21.3712 1.53672C10.006 0.719497 0.482456 10.0202 1.03044 21.4015L5.62918 116.914C6.11675 127.04 14.469 135 24.6072 135H117H144V135C146.221 127.845 154.778 124.941 160.895 129.267L169 135H261.329C270.429 135 278.25 128.549 279.982 119.616L294.924 42.5302Z" fill="#C4C4C4"/>
<path d="M162.5 157.5L155.5 135H169L160.895 129.267C154.778 124.941 146.221 127.845 144 135V135L162.5 157.5Z" fill="#C4C4C4"/>
<path d="M36.3052 60V33.6953H45.519C48.7108 33.6953 51.1317 34.3096 52.7817 35.5381C54.4318 36.7546 55.2568 38.5431 55.2568 40.9038C55.2568 42.1925 54.9256 43.3307 54.2632 44.3184C53.6007 45.2939 52.6794 46.0106 51.499 46.4683C52.848 46.8055 53.9079 47.486 54.6787 48.5098C55.4616 49.5335 55.853 50.7861 55.853 52.2676C55.853 54.7969 55.0461 56.7119 53.4321 58.0127C51.8182 59.3135 49.5177 59.9759 46.5308 60H36.3052ZM41.7251 48.5459V55.646H46.3682C47.6449 55.646 48.6385 55.3449 49.3491 54.7427C50.0718 54.1284 50.4331 53.2853 50.4331 52.2134C50.4331 49.8045 49.1865 48.582 46.6934 48.5459H41.7251ZM41.7251 44.7158H45.7358C48.4699 44.6676 49.8369 43.5776 49.8369 41.4458C49.8369 40.2534 49.4876 39.3983 48.7891 38.8804C48.1025 38.3504 47.0125 38.0854 45.519 38.0854H41.7251V44.7158ZM65.103 60H59.8638V40.4521H65.103V60ZM59.5566 35.3936C59.5566 34.6107 59.8156 33.9663 60.3335 33.4604C60.8634 32.9546 61.5801 32.7017 62.4834 32.7017C63.3747 32.7017 64.0853 32.9546 64.6152 33.4604C65.1452 33.9663 65.4102 34.6107 65.4102 35.3936C65.4102 36.1885 65.1392 36.8389 64.5972 37.3447C64.0672 37.8506 63.3626 38.1035 62.4834 38.1035C61.6042 38.1035 60.8936 37.8506 60.3516 37.3447C59.8216 36.8389 59.5566 36.1885 59.5566 35.3936ZM78.418 60.3613C75.5514 60.3613 73.2148 59.4821 71.4082 57.7236C69.6136 55.9652 68.7163 53.6226 68.7163 50.6958V50.1899C68.7163 48.2267 69.0957 46.4743 69.8545 44.9326C70.6133 43.3789 71.6852 42.1865 73.0703 41.3555C74.4674 40.5124 76.0573 40.0908 77.8398 40.0908C80.5137 40.0908 82.6154 40.9339 84.145 42.6201C85.6867 44.3063 86.4575 46.6971 86.4575 49.7925V51.9243H74.0098C74.1784 53.201 74.6842 54.2248 75.5273 54.9956C76.3825 55.7664 77.4604 56.1519 78.7612 56.1519C80.7726 56.1519 82.3444 55.4232 83.4766 53.9658L86.042 56.8384C85.2591 57.9465 84.1992 58.8136 82.8623 59.4399C81.5254 60.0542 80.0439 60.3613 78.418 60.3613ZM77.8218 44.3184C76.786 44.3184 75.9429 44.6676 75.2925 45.3662C74.6541 46.0648 74.2446 47.0645 74.064 48.3652H81.3267V47.9497C81.3026 46.7935 80.9894 45.9022 80.3872 45.2759C79.785 44.6375 78.9299 44.3184 77.8218 44.3184ZM94.2441 40.4521L94.4067 42.7104C95.8039 40.964 97.6768 40.0908 100.025 40.0908C102.097 40.0908 103.639 40.6991 104.65 41.9155C105.662 43.132 106.18 44.9507 106.204 47.3716V60H100.983V47.498C100.983 46.39 100.742 45.589 100.26 45.0952C99.7785 44.5894 98.9775 44.3364 97.8574 44.3364C96.388 44.3364 95.286 44.9627 94.5513 46.2153V60H89.3301V40.4521H94.2441ZM117.496 53.6226L121.127 40.4521H126.583L119.989 60H115.002L108.408 40.4521H113.864L117.496 53.6226ZM137.64 60.3613C134.773 60.3613 132.437 59.4821 130.63 57.7236C128.835 55.9652 127.938 53.6226 127.938 50.6958V50.1899C127.938 48.2267 128.317 46.4743 129.076 44.9326C129.835 43.3789 130.907 42.1865 132.292 41.3555C133.689 40.5124 135.279 40.0908 137.062 40.0908C139.735 40.0908 141.837 40.9339 143.367 42.6201C144.908 44.3063 145.679 46.6971 145.679 49.7925V51.9243H133.231C133.4 53.201 133.906 54.2248 134.749 54.9956C135.604 55.7664 136.682 56.1519 137.983 56.1519C139.994 56.1519 141.566 55.4232 142.698 53.9658L145.264 56.8384C144.481 57.9465 143.421 58.8136 142.084 59.4399C140.747 60.0542 139.266 60.3613 137.64 60.3613ZM137.043 44.3184C136.008 44.3184 135.165 44.6676 134.514 45.3662C133.876 46.0648 133.466 47.0645 133.286 48.3652H140.548V47.9497C140.524 46.7935 140.211 45.9022 139.609 45.2759C139.007 44.6375 138.152 44.3184 137.043 44.3184ZM153.466 40.4521L153.628 42.7104C155.026 40.964 156.898 40.0908 159.247 40.0908C161.319 40.0908 162.86 40.6991 163.872 41.9155C164.884 43.132 165.402 44.9507 165.426 47.3716V60H160.205V47.498C160.205 46.39 159.964 45.589 159.482 45.0952C159 44.5894 158.199 44.3364 157.079 44.3364C155.61 44.3364 154.508 44.9627 153.773 46.2153V60H148.552V40.4521H153.466ZM174.911 60H169.671V40.4521H174.911V60ZM169.364 35.3936C169.364 34.6107 169.623 33.9663 170.141 33.4604C170.671 32.9546 171.388 32.7017 172.291 32.7017C173.182 32.7017 173.893 32.9546 174.423 33.4604C174.953 33.9663 175.218 34.6107 175.218 35.3936C175.218 36.1885 174.947 36.8389 174.405 37.3447C173.875 37.8506 173.17 38.1035 172.291 38.1035C171.412 38.1035 170.701 37.8506 170.159 37.3447C169.629 36.8389 169.364 36.1885 169.364 35.3936ZM178.416 50.0815C178.416 47.0343 179.096 44.6074 180.457 42.8008C181.83 40.9941 183.703 40.0908 186.076 40.0908C187.979 40.0908 189.55 40.8014 190.791 42.2227V32.25H196.03V60H191.315L191.062 57.9224C189.761 59.5483 188.087 60.3613 186.04 60.3613C183.739 60.3613 181.89 59.458 180.493 57.6514C179.108 55.8327 178.416 53.3094 178.416 50.0815ZM183.637 50.4609C183.637 52.2917 183.956 53.6948 184.594 54.6704C185.233 55.646 186.16 56.1338 187.376 56.1338C188.99 56.1338 190.129 55.4533 190.791 54.0923V46.3779C190.141 45.0169 189.014 44.3364 187.413 44.3364C184.895 44.3364 183.637 46.3779 183.637 50.4609ZM199.264 50.0454C199.264 48.1063 199.638 46.3779 200.384 44.8604C201.131 43.3428 202.203 42.1685 203.6 41.3374C205.009 40.5063 206.641 40.0908 208.496 40.0908C211.134 40.0908 213.284 40.8978 214.946 42.5117C216.62 44.1257 217.553 46.3177 217.746 49.0879L217.782 50.4248C217.782 53.4238 216.945 55.8327 215.271 57.6514C213.597 59.458 211.351 60.3613 208.532 60.3613C205.714 60.3613 203.462 59.458 201.775 57.6514C200.101 55.8447 199.264 53.3877 199.264 50.2803V50.0454ZM204.485 50.4248C204.485 52.2796 204.835 53.7008 205.533 54.6885C206.232 55.6641 207.231 56.1519 208.532 56.1519C209.797 56.1519 210.785 55.6701 211.495 54.7065C212.206 53.731 212.561 52.1772 212.561 50.0454C212.561 48.2267 212.206 46.8175 211.495 45.8179C210.785 44.8182 209.785 44.3184 208.496 44.3184C207.219 44.3184 206.232 44.8182 205.533 45.8179C204.835 46.8055 204.485 48.3411 204.485 50.4248ZM241.54 60C241.299 59.5303 241.124 58.9461 241.016 58.2476C239.751 59.6567 238.107 60.3613 236.083 60.3613C234.168 60.3613 232.579 59.8073 231.314 58.6992C230.061 57.5911 229.435 56.194 229.435 54.5078C229.435 52.4362 230.2 50.8464 231.729 49.7383C233.271 48.6302 235.493 48.0701 238.396 48.0581H240.799V46.938C240.799 46.0347 240.564 45.312 240.094 44.77C239.637 44.228 238.908 43.957 237.908 43.957C237.029 43.957 236.336 44.1678 235.831 44.5894C235.337 45.0109 235.09 45.589 235.09 46.3237H229.869C229.869 45.1916 230.218 44.1437 230.917 43.1802C231.615 42.2166 232.603 41.4639 233.879 40.9219C235.156 40.3678 236.589 40.0908 238.179 40.0908C240.588 40.0908 242.497 40.6991 243.906 41.9155C245.327 43.12 246.038 44.8182 246.038 47.0103V55.4834C246.05 57.3382 246.309 58.7414 246.815 59.6929V60H241.54ZM237.222 56.3687C237.993 56.3687 238.703 56.2 239.354 55.8628C240.004 55.5135 240.486 55.0498 240.799 54.4717V51.1113H238.848C236.234 51.1113 234.843 52.0146 234.674 53.8213L234.656 54.1284C234.656 54.7788 234.885 55.3148 235.343 55.7363C235.8 56.1579 236.427 56.3687 237.222 56.3687ZM23.2251 98.646H34.7334V103H17.8052V76.6953H23.2251V98.646ZM46.5127 103.361C43.6462 103.361 41.3096 102.482 39.5029 100.724C37.7083 98.9652 36.811 96.6226 36.811 93.6958V93.1899C36.811 91.2267 37.1904 89.4743 37.9492 87.9326C38.708 86.3789 39.7799 85.1865 41.165 84.3555C42.5622 83.5124 44.152 83.0908 45.9346 83.0908C48.6084 83.0908 50.7101 83.9339 52.2397 85.6201C53.7814 87.3063 54.5522 89.6971 54.5522 92.7925V94.9243H42.1045C42.2731 96.201 42.779 97.2248 43.6221 97.9956C44.4772 98.7664 45.5552 99.1519 46.856 99.1519C48.8674 99.1519 50.4391 98.4232 51.5713 96.9658L54.1367 99.8384C53.3538 100.946 52.2939 101.814 50.957 102.44C49.6201 103.054 48.1387 103.361 46.5127 103.361ZM45.9165 87.3184C44.8807 87.3184 44.0376 87.6676 43.3872 88.3662C42.7489 89.0648 42.3394 90.0645 42.1587 91.3652H49.4214V90.9497C49.3973 89.7935 49.0841 88.9022 48.4819 88.2759C47.8797 87.6375 47.0246 87.3184 45.9165 87.3184ZM76.8281 93.3706H72.5103V103H67.0903V76.6953H76.8643C79.9717 76.6953 82.3685 77.3879 84.0547 78.7729C85.7409 80.158 86.584 82.1152 86.584 84.6445C86.584 86.4391 86.1925 87.9386 85.4097 89.1431C84.6388 90.3354 83.4645 91.2869 81.8867 91.9976L87.5776 102.747V103H81.7603L76.8281 93.3706ZM72.5103 88.9805H76.8823C78.2433 88.9805 79.2972 88.6372 80.0439 87.9507C80.7907 87.2521 81.1641 86.2946 81.1641 85.0781C81.1641 83.8376 80.8088 82.862 80.0981 82.1514C79.3996 81.4408 78.3216 81.0854 76.8643 81.0854H72.5103V88.9805ZM99.375 103.361C96.5085 103.361 94.1719 102.482 92.3652 100.724C90.5706 98.9652 89.6733 96.6226 89.6733 93.6958V93.1899C89.6733 91.2267 90.0527 89.4743 90.8115 87.9326C91.5703 86.3789 92.6423 85.1865 94.0273 84.3555C95.4245 83.5124 97.0143 83.0908 98.7969 83.0908C101.471 83.0908 103.572 83.9339 105.102 85.6201C106.644 87.3063 107.415 89.6971 107.415 92.7925V94.9243H94.9668C95.1354 96.201 95.6413 97.2248 96.4844 97.9956C97.3395 98.7664 98.4175 99.1519 99.7183 99.1519C101.73 99.1519 103.301 98.4232 104.434 96.9658L106.999 99.8384C106.216 100.946 105.156 101.814 103.819 102.44C102.482 103.054 101.001 103.361 99.375 103.361ZM98.7788 87.3184C97.743 87.3184 96.8999 87.6676 96.2495 88.3662C95.6112 89.0648 95.2017 90.0645 95.021 91.3652H102.284V90.9497C102.26 89.7935 101.946 88.9022 101.344 88.2759C100.742 87.6375 99.8869 87.3184 98.7788 87.3184ZM120.982 97.5981C120.982 96.9598 120.663 96.46 120.025 96.0986C119.399 95.7253 118.387 95.394 116.99 95.105C112.341 94.1294 110.016 92.1541 110.016 89.1792C110.016 87.4448 110.733 85.9995 112.166 84.8433C113.611 83.675 115.496 83.0908 117.821 83.0908C120.302 83.0908 122.283 83.675 123.765 84.8433C125.258 86.0116 126.005 87.5291 126.005 89.396H120.784C120.784 88.6493 120.543 88.035 120.061 87.5532C119.579 87.0594 118.826 86.8125 117.803 86.8125C116.924 86.8125 116.243 87.0112 115.761 87.4087C115.279 87.8062 115.039 88.312 115.039 88.9263C115.039 89.5044 115.31 89.9741 115.852 90.3354C116.406 90.6847 117.333 90.9919 118.634 91.2568C119.935 91.5098 121.031 91.7988 121.922 92.124C124.68 93.1357 126.059 94.8882 126.059 97.3813C126.059 99.1639 125.294 100.609 123.765 101.717C122.235 102.813 120.26 103.361 117.839 103.361C116.201 103.361 114.743 103.072 113.467 102.494C112.202 101.904 111.208 101.103 110.486 100.091C109.763 99.0675 109.402 97.9655 109.402 96.7852H114.352C114.4 97.7126 114.743 98.4232 115.382 98.917C116.02 99.4108 116.875 99.6577 117.947 99.6577C118.947 99.6577 119.7 99.471 120.206 99.0977C120.723 98.7122 120.982 98.2124 120.982 97.5981ZM135.688 78.6465V83.4521H139.031V87.2822H135.688V97.0381C135.688 97.7607 135.827 98.2786 136.104 98.5918C136.381 98.9049 136.911 99.0615 137.694 99.0615C138.272 99.0615 138.784 99.0194 139.229 98.9351V102.892C138.206 103.205 137.152 103.361 136.068 103.361C132.406 103.361 130.54 101.513 130.467 97.8149V87.2822H127.613V83.4521H130.467V78.6465H135.688ZM153.267 103C153.026 102.53 152.852 101.946 152.743 101.248C151.479 102.657 149.834 103.361 147.811 103.361C145.896 103.361 144.306 102.807 143.042 101.699C141.789 100.591 141.163 99.194 141.163 97.5078C141.163 95.4362 141.927 93.8464 143.457 92.7383C144.999 91.6302 147.221 91.0701 150.124 91.0581H152.526V89.938C152.526 89.0347 152.292 88.312 151.822 87.77C151.364 87.228 150.635 86.957 149.636 86.957C148.757 86.957 148.064 87.1678 147.558 87.5894C147.064 88.0109 146.817 88.589 146.817 89.3237H141.596C141.596 88.1916 141.945 87.1437 142.644 86.1802C143.343 85.2166 144.33 84.4639 145.607 83.9219C146.884 83.3678 148.317 83.0908 149.907 83.0908C152.316 83.0908 154.225 83.6991 155.634 84.9155C157.055 86.12 157.766 87.8182 157.766 90.0103V98.4834C157.778 100.338 158.037 101.741 158.542 102.693V103H153.267ZM148.949 99.3687C149.72 99.3687 150.431 99.2 151.081 98.8628C151.731 98.5135 152.213 98.0498 152.526 97.4717V94.1113H150.575C147.962 94.1113 146.57 95.0146 146.402 96.8213L146.384 97.1284C146.384 97.7788 146.613 98.3148 147.07 98.7363C147.528 99.1579 148.154 99.3687 148.949 99.3687ZM173.483 101.013C172.195 102.578 170.412 103.361 168.136 103.361C166.04 103.361 164.438 102.759 163.33 101.555C162.234 100.35 161.674 98.5858 161.65 96.2612V83.4521H166.871V96.0806C166.871 98.116 167.799 99.1338 169.653 99.1338C171.424 99.1338 172.64 98.5195 173.303 97.291V83.4521H178.542V103H173.628L173.483 101.013ZM193.465 88.3481C192.754 88.2518 192.128 88.2036 191.586 88.2036C189.611 88.2036 188.316 88.8721 187.702 90.209V103H182.48V83.4521H187.413L187.557 85.7827C188.605 83.9881 190.056 83.0908 191.911 83.0908C192.489 83.0908 193.031 83.1691 193.537 83.3257L193.465 88.3481ZM206.78 103C206.539 102.53 206.364 101.946 206.256 101.248C204.991 102.657 203.347 103.361 201.324 103.361C199.409 103.361 197.819 102.807 196.554 101.699C195.302 100.591 194.675 99.194 194.675 97.5078C194.675 95.4362 195.44 93.8464 196.97 92.7383C198.511 91.6302 200.734 91.0701 203.636 91.0581H206.039V89.938C206.039 89.0347 205.804 88.312 205.334 87.77C204.877 87.228 204.148 86.957 203.148 86.957C202.269 86.957 201.577 87.1678 201.071 87.5894C200.577 88.0109 200.33 88.589 200.33 89.3237H195.109C195.109 88.1916 195.458 87.1437 196.157 86.1802C196.855 85.2166 197.843 84.4639 199.12 83.9219C200.396 83.3678 201.83 83.0908 203.419 83.0908C205.828 83.0908 207.737 83.6991 209.146 84.9155C210.568 86.12 211.278 87.8182 211.278 90.0103V98.4834C211.29 100.338 211.549 101.741 212.055 102.693V103H206.78ZM202.462 99.3687C203.233 99.3687 203.943 99.2 204.594 98.8628C205.244 98.5135 205.726 98.0498 206.039 97.4717V94.1113H204.088C201.474 94.1113 200.083 95.0146 199.915 96.8213L199.896 97.1284C199.896 97.7788 200.125 98.3148 200.583 98.7363C201.041 99.1579 201.667 99.3687 202.462 99.3687ZM220.095 83.4521L220.257 85.7104C221.654 83.964 223.527 83.0908 225.876 83.0908C227.948 83.0908 229.489 83.6991 230.501 84.9155C231.513 86.132 232.031 87.9507 232.055 90.3716V103H226.833V90.498C226.833 89.39 226.593 88.589 226.111 88.0952C225.629 87.5894 224.828 87.3364 223.708 87.3364C222.239 87.3364 221.137 87.9627 220.402 89.2153V103H215.181V83.4521H220.095ZM242.28 78.6465V83.4521H245.623V87.2822H242.28V97.0381C242.28 97.7607 242.419 98.2786 242.696 98.5918C242.973 98.9049 243.503 99.0615 244.286 99.0615C244.864 99.0615 245.376 99.0194 245.821 98.9351V102.892C244.798 103.205 243.744 103.361 242.66 103.361C238.998 103.361 237.131 101.513 237.059 97.8149V87.2822H234.205V83.4521H237.059V78.6465H242.28ZM257.528 103.361C254.662 103.361 252.325 102.482 250.519 100.724C248.724 98.9652 247.827 96.6226 247.827 93.6958V93.1899C247.827 91.2267 248.206 89.4743 248.965 87.9326C249.724 86.3789 250.796 85.1865 252.181 84.3555C253.578 83.5124 255.168 83.0908 256.95 83.0908C259.624 83.0908 261.726 83.9339 263.255 85.6201C264.797 87.3063 265.568 89.6971 265.568 92.7925V94.9243H253.12C253.289 96.201 253.795 97.2248 254.638 97.9956C255.493 98.7664 256.571 99.1519 257.872 99.1519C259.883 99.1519 261.455 98.4232 262.587 96.9658L265.152 99.8384C264.369 100.946 263.31 101.814 261.973 102.44C260.636 103.054 259.154 103.361 257.528 103.361ZM256.932 87.3184C255.896 87.3184 255.053 87.6676 254.403 88.3662C253.764 89.0648 253.355 90.0645 253.174 91.3652H260.437V90.9497C260.413 89.7935 260.1 88.9022 259.498 88.2759C258.895 87.6375 258.04 87.3184 256.932 87.3184Z" fill="black"/>
</svg>
